%TF.GenerationSoftware,KiCad,Pcbnew,7.0.9*%
%TF.CreationDate,2023-12-13T00:56:51-08:00*%
%TF.ProjectId,Vi-Fi,56692d46-692e-46b6-9963-61645f706362,rev?*%
%TF.SameCoordinates,Original*%
%TF.FileFunction,Paste,Top*%
%TF.FilePolarity,Positive*%
%FSLAX46Y46*%
G04 Gerber Fmt 4.6, Leading zero omitted, Abs format (unit mm)*
G04 Created by KiCad (PCBNEW 7.0.9) date 2023-12-13 00:56:51*
%MOMM*%
%LPD*%
G01*
G04 APERTURE LIST*
G04 Aperture macros list*
%AMRoundRect*
0 Rectangle with rounded corners*
0 $1 Rounding radius*
0 $2 $3 $4 $5 $6 $7 $8 $9 X,Y pos of 4 corners*
0 Add a 4 corners polygon primitive as box body*
4,1,4,$2,$3,$4,$5,$6,$7,$8,$9,$2,$3,0*
0 Add four circle primitives for the rounded corners*
1,1,$1+$1,$2,$3*
1,1,$1+$1,$4,$5*
1,1,$1+$1,$6,$7*
1,1,$1+$1,$8,$9*
0 Add four rect primitives between the rounded corners*
20,1,$1+$1,$2,$3,$4,$5,0*
20,1,$1+$1,$4,$5,$6,$7,0*
20,1,$1+$1,$6,$7,$8,$9,0*
20,1,$1+$1,$8,$9,$2,$3,0*%
G04 Aperture macros list end*
%ADD10RoundRect,0.225000X0.250000X-0.225000X0.250000X0.225000X-0.250000X0.225000X-0.250000X-0.225000X0*%
%ADD11RoundRect,0.225000X0.225000X0.250000X-0.225000X0.250000X-0.225000X-0.250000X0.225000X-0.250000X0*%
%ADD12R,1.524000X0.600000*%
%ADD13R,0.700000X1.200000*%
%ADD14R,1.500000X0.900000*%
%ADD15R,4.000000X4.000000*%
%ADD16RoundRect,0.200000X0.275000X-0.200000X0.275000X0.200000X-0.275000X0.200000X-0.275000X-0.200000X0*%
%ADD17R,7.000000X3.500000*%
%ADD18RoundRect,0.150000X0.150000X-0.512500X0.150000X0.512500X-0.150000X0.512500X-0.150000X-0.512500X0*%
%ADD19RoundRect,0.200000X-0.200000X-0.275000X0.200000X-0.275000X0.200000X0.275000X-0.200000X0.275000X0*%
%ADD20RoundRect,0.200000X0.200000X0.275000X-0.200000X0.275000X-0.200000X-0.275000X0.200000X-0.275000X0*%
%ADD21RoundRect,0.150000X-0.150000X0.825000X-0.150000X-0.825000X0.150000X-0.825000X0.150000X0.825000X0*%
%ADD22RoundRect,0.250000X-0.475000X0.250000X-0.475000X-0.250000X0.475000X-0.250000X0.475000X0.250000X0*%
%ADD23RoundRect,0.225000X-0.225000X-0.250000X0.225000X-0.250000X0.225000X0.250000X-0.225000X0.250000X0*%
%ADD24RoundRect,0.250000X-0.250000X-0.475000X0.250000X-0.475000X0.250000X0.475000X-0.250000X0.475000X0*%
G04 APERTURE END LIST*
D10*
%TO.C,C4*%
X63715000Y-77775000D03*
X63715000Y-76225000D03*
%TD*%
D11*
%TO.C,C3*%
X49162000Y-48006000D03*
X47612000Y-48006000D03*
%TD*%
D12*
%TO.C,SW2*%
X47420000Y-64044000D03*
X47420000Y-67044000D03*
X47420000Y-68544000D03*
D13*
X46320000Y-62694000D03*
X44020000Y-62694000D03*
X46320000Y-69894000D03*
X44020000Y-69894000D03*
%TD*%
D14*
%TO.C,U1*%
X51383000Y-46451000D03*
X51383000Y-47951000D03*
X51383000Y-49451000D03*
X51383000Y-50951000D03*
X51383000Y-52451000D03*
X51383000Y-53951000D03*
X51383000Y-55451000D03*
X51383000Y-56951000D03*
X51383000Y-58451000D03*
X68883000Y-58451000D03*
X68883000Y-56951000D03*
X68883000Y-55451000D03*
X68883000Y-53951000D03*
X68883000Y-52451000D03*
X68883000Y-50951000D03*
X68883000Y-49451000D03*
X68883000Y-47951000D03*
X68883000Y-46451000D03*
D15*
X61233000Y-53061000D03*
%TD*%
D16*
%TO.C,R5*%
X58415000Y-80175000D03*
X58415000Y-78525000D03*
%TD*%
D10*
%TO.C,C2*%
X64215000Y-67625000D03*
X64215000Y-66075000D03*
%TD*%
D17*
%TO.C,L1*%
X68815000Y-68950000D03*
X68815000Y-74350000D03*
%TD*%
D18*
%TO.C,U3*%
X60365000Y-77787500D03*
X61315000Y-77787500D03*
X62265000Y-77787500D03*
X62265000Y-75512500D03*
X61315000Y-75512500D03*
X60365000Y-75512500D03*
%TD*%
D19*
%TO.C,R9*%
X49655000Y-53975000D03*
X48005000Y-53975000D03*
%TD*%
D20*
%TO.C,R2*%
X60315000Y-70050000D03*
X58665000Y-70050000D03*
%TD*%
D16*
%TO.C,R7*%
X60315000Y-72425000D03*
X60315000Y-74075000D03*
%TD*%
D21*
%TO.C,U2*%
X53148000Y-81977000D03*
X51878000Y-81977000D03*
X50608000Y-81977000D03*
X49338000Y-81977000D03*
X49338000Y-77027000D03*
X50608000Y-77027000D03*
X51878000Y-77027000D03*
X53148000Y-77027000D03*
%TD*%
D22*
%TO.C,C2A1*%
X61815000Y-65800000D03*
X61815000Y-67700000D03*
%TD*%
D20*
%TO.C,R1*%
X63540000Y-70050000D03*
X61890000Y-70050000D03*
%TD*%
D23*
%TO.C,C1A1*%
X61590000Y-80400000D03*
X60040000Y-80400000D03*
%TD*%
D24*
%TO.C,C1*%
X61815000Y-82400000D03*
X59915000Y-82400000D03*
%TD*%
M02*
