%TF.GenerationSoftware,KiCad,Pcbnew,7.0.9*%
%TF.CreationDate,2023-12-13T00:56:51-08:00*%
%TF.ProjectId,Vi-Fi,56692d46-692e-46b6-9963-61645f706362,rev?*%
%TF.SameCoordinates,Original*%
%TF.FileFunction,Legend,Top*%
%TF.FilePolarity,Positive*%
%FSLAX46Y46*%
G04 Gerber Fmt 4.6, Leading zero omitted, Abs format (unit mm)*
G04 Created by KiCad (PCBNEW 7.0.9) date 2023-12-13 00:56:51*
%MOMM*%
%LPD*%
G01*
G04 APERTURE LIST*
G04 Aperture macros list*
%AMRoundRect*
0 Rectangle with rounded corners*
0 $1 Rounding radius*
0 $2 $3 $4 $5 $6 $7 $8 $9 X,Y pos of 4 corners*
0 Add a 4 corners polygon primitive as box body*
4,1,4,$2,$3,$4,$5,$6,$7,$8,$9,$2,$3,0*
0 Add four circle primitives for the rounded corners*
1,1,$1+$1,$2,$3*
1,1,$1+$1,$4,$5*
1,1,$1+$1,$6,$7*
1,1,$1+$1,$8,$9*
0 Add four rect primitives between the rounded corners*
20,1,$1+$1,$2,$3,$4,$5,0*
20,1,$1+$1,$4,$5,$6,$7,0*
20,1,$1+$1,$6,$7,$8,$9,0*
20,1,$1+$1,$8,$9,$2,$3,0*%
G04 Aperture macros list end*
%ADD10C,0.150000*%
%ADD11C,0.120000*%
%ADD12C,0.254000*%
%ADD13RoundRect,0.225000X0.250000X-0.225000X0.250000X0.225000X-0.250000X0.225000X-0.250000X-0.225000X0*%
%ADD14RoundRect,0.225000X0.225000X0.250000X-0.225000X0.250000X-0.225000X-0.250000X0.225000X-0.250000X0*%
%ADD15C,0.900000*%
%ADD16R,1.524000X0.600000*%
%ADD17R,0.700000X1.200000*%
%ADD18R,1.500000X0.900000*%
%ADD19R,4.000000X4.000000*%
%ADD20RoundRect,0.200000X0.275000X-0.200000X0.275000X0.200000X-0.275000X0.200000X-0.275000X-0.200000X0*%
%ADD21R,7.000000X3.500000*%
%ADD22C,3.250000*%
%ADD23RoundRect,0.250000X-0.650000X-0.650000X0.650000X-0.650000X0.650000X0.650000X-0.650000X0.650000X0*%
%ADD24C,1.800000*%
%ADD25RoundRect,0.150000X0.150000X-0.512500X0.150000X0.512500X-0.150000X0.512500X-0.150000X-0.512500X0*%
%ADD26RoundRect,0.200000X-0.200000X-0.275000X0.200000X-0.275000X0.200000X0.275000X-0.200000X0.275000X0*%
%ADD27RoundRect,0.200000X0.200000X0.275000X-0.200000X0.275000X-0.200000X-0.275000X0.200000X-0.275000X0*%
%ADD28RoundRect,0.150000X-0.150000X0.825000X-0.150000X-0.825000X0.150000X-0.825000X0.150000X0.825000X0*%
%ADD29RoundRect,0.250000X-0.475000X0.250000X-0.475000X-0.250000X0.475000X-0.250000X0.475000X0.250000X0*%
%ADD30RoundRect,0.225000X-0.225000X-0.250000X0.225000X-0.250000X0.225000X0.250000X-0.225000X0.250000X0*%
%ADD31RoundRect,0.250000X-0.250000X-0.475000X0.250000X-0.475000X0.250000X0.475000X-0.250000X0.475000X0*%
G04 APERTURE END LIST*
D10*
X62644580Y-77166666D02*
X62692200Y-77214285D01*
X62692200Y-77214285D02*
X62739819Y-77357142D01*
X62739819Y-77357142D02*
X62739819Y-77452380D01*
X62739819Y-77452380D02*
X62692200Y-77595237D01*
X62692200Y-77595237D02*
X62596961Y-77690475D01*
X62596961Y-77690475D02*
X62501723Y-77738094D01*
X62501723Y-77738094D02*
X62311247Y-77785713D01*
X62311247Y-77785713D02*
X62168390Y-77785713D01*
X62168390Y-77785713D02*
X61977914Y-77738094D01*
X61977914Y-77738094D02*
X61882676Y-77690475D01*
X61882676Y-77690475D02*
X61787438Y-77595237D01*
X61787438Y-77595237D02*
X61739819Y-77452380D01*
X61739819Y-77452380D02*
X61739819Y-77357142D01*
X61739819Y-77357142D02*
X61787438Y-77214285D01*
X61787438Y-77214285D02*
X61835057Y-77166666D01*
X62073152Y-76309523D02*
X62739819Y-76309523D01*
X61692200Y-76547618D02*
X62406485Y-76785713D01*
X62406485Y-76785713D02*
X62406485Y-76166666D01*
X48220333Y-49795580D02*
X48172714Y-49843200D01*
X48172714Y-49843200D02*
X48029857Y-49890819D01*
X48029857Y-49890819D02*
X47934619Y-49890819D01*
X47934619Y-49890819D02*
X47791762Y-49843200D01*
X47791762Y-49843200D02*
X47696524Y-49747961D01*
X47696524Y-49747961D02*
X47648905Y-49652723D01*
X47648905Y-49652723D02*
X47601286Y-49462247D01*
X47601286Y-49462247D02*
X47601286Y-49319390D01*
X47601286Y-49319390D02*
X47648905Y-49128914D01*
X47648905Y-49128914D02*
X47696524Y-49033676D01*
X47696524Y-49033676D02*
X47791762Y-48938438D01*
X47791762Y-48938438D02*
X47934619Y-48890819D01*
X47934619Y-48890819D02*
X48029857Y-48890819D01*
X48029857Y-48890819D02*
X48172714Y-48938438D01*
X48172714Y-48938438D02*
X48220333Y-48986057D01*
X48553667Y-48890819D02*
X49172714Y-48890819D01*
X49172714Y-48890819D02*
X48839381Y-49271771D01*
X48839381Y-49271771D02*
X48982238Y-49271771D01*
X48982238Y-49271771D02*
X49077476Y-49319390D01*
X49077476Y-49319390D02*
X49125095Y-49367009D01*
X49125095Y-49367009D02*
X49172714Y-49462247D01*
X49172714Y-49462247D02*
X49172714Y-49700342D01*
X49172714Y-49700342D02*
X49125095Y-49795580D01*
X49125095Y-49795580D02*
X49077476Y-49843200D01*
X49077476Y-49843200D02*
X48982238Y-49890819D01*
X48982238Y-49890819D02*
X48696524Y-49890819D01*
X48696524Y-49890819D02*
X48601286Y-49843200D01*
X48601286Y-49843200D02*
X48553667Y-49795580D01*
X49334200Y-69249826D02*
X49381819Y-69106969D01*
X49381819Y-69106969D02*
X49381819Y-68868874D01*
X49381819Y-68868874D02*
X49334200Y-68773636D01*
X49334200Y-68773636D02*
X49286580Y-68726017D01*
X49286580Y-68726017D02*
X49191342Y-68678398D01*
X49191342Y-68678398D02*
X49096104Y-68678398D01*
X49096104Y-68678398D02*
X49000866Y-68726017D01*
X49000866Y-68726017D02*
X48953247Y-68773636D01*
X48953247Y-68773636D02*
X48905628Y-68868874D01*
X48905628Y-68868874D02*
X48858009Y-69059350D01*
X48858009Y-69059350D02*
X48810390Y-69154588D01*
X48810390Y-69154588D02*
X48762771Y-69202207D01*
X48762771Y-69202207D02*
X48667533Y-69249826D01*
X48667533Y-69249826D02*
X48572295Y-69249826D01*
X48572295Y-69249826D02*
X48477057Y-69202207D01*
X48477057Y-69202207D02*
X48429438Y-69154588D01*
X48429438Y-69154588D02*
X48381819Y-69059350D01*
X48381819Y-69059350D02*
X48381819Y-68821255D01*
X48381819Y-68821255D02*
X48429438Y-68678398D01*
X48381819Y-68345064D02*
X49381819Y-68106969D01*
X49381819Y-68106969D02*
X48667533Y-67916493D01*
X48667533Y-67916493D02*
X49381819Y-67726017D01*
X49381819Y-67726017D02*
X48381819Y-67487922D01*
X48477057Y-67154588D02*
X48429438Y-67106969D01*
X48429438Y-67106969D02*
X48381819Y-67011731D01*
X48381819Y-67011731D02*
X48381819Y-66773636D01*
X48381819Y-66773636D02*
X48429438Y-66678398D01*
X48429438Y-66678398D02*
X48477057Y-66630779D01*
X48477057Y-66630779D02*
X48572295Y-66583160D01*
X48572295Y-66583160D02*
X48667533Y-66583160D01*
X48667533Y-66583160D02*
X48810390Y-66630779D01*
X48810390Y-66630779D02*
X49381819Y-67202207D01*
X49381819Y-67202207D02*
X49381819Y-66583160D01*
X49087819Y-58342904D02*
X49897342Y-58342904D01*
X49897342Y-58342904D02*
X49992580Y-58295285D01*
X49992580Y-58295285D02*
X50040200Y-58247666D01*
X50040200Y-58247666D02*
X50087819Y-58152428D01*
X50087819Y-58152428D02*
X50087819Y-57961952D01*
X50087819Y-57961952D02*
X50040200Y-57866714D01*
X50040200Y-57866714D02*
X49992580Y-57819095D01*
X49992580Y-57819095D02*
X49897342Y-57771476D01*
X49897342Y-57771476D02*
X49087819Y-57771476D01*
X50087819Y-56771476D02*
X50087819Y-57342904D01*
X50087819Y-57057190D02*
X49087819Y-57057190D01*
X49087819Y-57057190D02*
X49230676Y-57152428D01*
X49230676Y-57152428D02*
X49325914Y-57247666D01*
X49325914Y-57247666D02*
X49373533Y-57342904D01*
X57439819Y-79516666D02*
X56963628Y-79849999D01*
X57439819Y-80088094D02*
X56439819Y-80088094D01*
X56439819Y-80088094D02*
X56439819Y-79707142D01*
X56439819Y-79707142D02*
X56487438Y-79611904D01*
X56487438Y-79611904D02*
X56535057Y-79564285D01*
X56535057Y-79564285D02*
X56630295Y-79516666D01*
X56630295Y-79516666D02*
X56773152Y-79516666D01*
X56773152Y-79516666D02*
X56868390Y-79564285D01*
X56868390Y-79564285D02*
X56916009Y-79611904D01*
X56916009Y-79611904D02*
X56963628Y-79707142D01*
X56963628Y-79707142D02*
X56963628Y-80088094D01*
X56439819Y-78611904D02*
X56439819Y-79088094D01*
X56439819Y-79088094D02*
X56916009Y-79135713D01*
X56916009Y-79135713D02*
X56868390Y-79088094D01*
X56868390Y-79088094D02*
X56820771Y-78992856D01*
X56820771Y-78992856D02*
X56820771Y-78754761D01*
X56820771Y-78754761D02*
X56868390Y-78659523D01*
X56868390Y-78659523D02*
X56916009Y-78611904D01*
X56916009Y-78611904D02*
X57011247Y-78564285D01*
X57011247Y-78564285D02*
X57249342Y-78564285D01*
X57249342Y-78564285D02*
X57344580Y-78611904D01*
X57344580Y-78611904D02*
X57392200Y-78659523D01*
X57392200Y-78659523D02*
X57439819Y-78754761D01*
X57439819Y-78754761D02*
X57439819Y-78992856D01*
X57439819Y-78992856D02*
X57392200Y-79088094D01*
X57392200Y-79088094D02*
X57344580Y-79135713D01*
X63144580Y-67016666D02*
X63192200Y-67064285D01*
X63192200Y-67064285D02*
X63239819Y-67207142D01*
X63239819Y-67207142D02*
X63239819Y-67302380D01*
X63239819Y-67302380D02*
X63192200Y-67445237D01*
X63192200Y-67445237D02*
X63096961Y-67540475D01*
X63096961Y-67540475D02*
X63001723Y-67588094D01*
X63001723Y-67588094D02*
X62811247Y-67635713D01*
X62811247Y-67635713D02*
X62668390Y-67635713D01*
X62668390Y-67635713D02*
X62477914Y-67588094D01*
X62477914Y-67588094D02*
X62382676Y-67540475D01*
X62382676Y-67540475D02*
X62287438Y-67445237D01*
X62287438Y-67445237D02*
X62239819Y-67302380D01*
X62239819Y-67302380D02*
X62239819Y-67207142D01*
X62239819Y-67207142D02*
X62287438Y-67064285D01*
X62287438Y-67064285D02*
X62335057Y-67016666D01*
X62335057Y-66635713D02*
X62287438Y-66588094D01*
X62287438Y-66588094D02*
X62239819Y-66492856D01*
X62239819Y-66492856D02*
X62239819Y-66254761D01*
X62239819Y-66254761D02*
X62287438Y-66159523D01*
X62287438Y-66159523D02*
X62335057Y-66111904D01*
X62335057Y-66111904D02*
X62430295Y-66064285D01*
X62430295Y-66064285D02*
X62525533Y-66064285D01*
X62525533Y-66064285D02*
X62668390Y-66111904D01*
X62668390Y-66111904D02*
X63239819Y-66683332D01*
X63239819Y-66683332D02*
X63239819Y-66064285D01*
X66062819Y-70837030D02*
X66062819Y-71313220D01*
X66062819Y-71313220D02*
X65062819Y-71313220D01*
X66062819Y-69979887D02*
X66062819Y-70551315D01*
X66062819Y-70265601D02*
X65062819Y-70265601D01*
X65062819Y-70265601D02*
X65205676Y-70360839D01*
X65205676Y-70360839D02*
X65300914Y-70456077D01*
X65300914Y-70456077D02*
X65348533Y-70551315D01*
X62091666Y-82562819D02*
X62091666Y-83277104D01*
X62091666Y-83277104D02*
X62044047Y-83419961D01*
X62044047Y-83419961D02*
X61948809Y-83515200D01*
X61948809Y-83515200D02*
X61805952Y-83562819D01*
X61805952Y-83562819D02*
X61710714Y-83562819D01*
X63091666Y-83562819D02*
X62520238Y-83562819D01*
X62805952Y-83562819D02*
X62805952Y-82562819D01*
X62805952Y-82562819D02*
X62710714Y-82705676D01*
X62710714Y-82705676D02*
X62615476Y-82800914D01*
X62615476Y-82800914D02*
X62520238Y-82848533D01*
X58369819Y-77411904D02*
X59179342Y-77411904D01*
X59179342Y-77411904D02*
X59274580Y-77364285D01*
X59274580Y-77364285D02*
X59322200Y-77316666D01*
X59322200Y-77316666D02*
X59369819Y-77221428D01*
X59369819Y-77221428D02*
X59369819Y-77030952D01*
X59369819Y-77030952D02*
X59322200Y-76935714D01*
X59322200Y-76935714D02*
X59274580Y-76888095D01*
X59274580Y-76888095D02*
X59179342Y-76840476D01*
X59179342Y-76840476D02*
X58369819Y-76840476D01*
X58369819Y-76459523D02*
X58369819Y-75840476D01*
X58369819Y-75840476D02*
X58750771Y-76173809D01*
X58750771Y-76173809D02*
X58750771Y-76030952D01*
X58750771Y-76030952D02*
X58798390Y-75935714D01*
X58798390Y-75935714D02*
X58846009Y-75888095D01*
X58846009Y-75888095D02*
X58941247Y-75840476D01*
X58941247Y-75840476D02*
X59179342Y-75840476D01*
X59179342Y-75840476D02*
X59274580Y-75888095D01*
X59274580Y-75888095D02*
X59322200Y-75935714D01*
X59322200Y-75935714D02*
X59369819Y-76030952D01*
X59369819Y-76030952D02*
X59369819Y-76316666D01*
X59369819Y-76316666D02*
X59322200Y-76411904D01*
X59322200Y-76411904D02*
X59274580Y-76459523D01*
X48663333Y-52999819D02*
X48330000Y-52523628D01*
X48091905Y-52999819D02*
X48091905Y-51999819D01*
X48091905Y-51999819D02*
X48472857Y-51999819D01*
X48472857Y-51999819D02*
X48568095Y-52047438D01*
X48568095Y-52047438D02*
X48615714Y-52095057D01*
X48615714Y-52095057D02*
X48663333Y-52190295D01*
X48663333Y-52190295D02*
X48663333Y-52333152D01*
X48663333Y-52333152D02*
X48615714Y-52428390D01*
X48615714Y-52428390D02*
X48568095Y-52476009D01*
X48568095Y-52476009D02*
X48472857Y-52523628D01*
X48472857Y-52523628D02*
X48091905Y-52523628D01*
X49139524Y-52999819D02*
X49330000Y-52999819D01*
X49330000Y-52999819D02*
X49425238Y-52952200D01*
X49425238Y-52952200D02*
X49472857Y-52904580D01*
X49472857Y-52904580D02*
X49568095Y-52761723D01*
X49568095Y-52761723D02*
X49615714Y-52571247D01*
X49615714Y-52571247D02*
X49615714Y-52190295D01*
X49615714Y-52190295D02*
X49568095Y-52095057D01*
X49568095Y-52095057D02*
X49520476Y-52047438D01*
X49520476Y-52047438D02*
X49425238Y-51999819D01*
X49425238Y-51999819D02*
X49234762Y-51999819D01*
X49234762Y-51999819D02*
X49139524Y-52047438D01*
X49139524Y-52047438D02*
X49091905Y-52095057D01*
X49091905Y-52095057D02*
X49044286Y-52190295D01*
X49044286Y-52190295D02*
X49044286Y-52428390D01*
X49044286Y-52428390D02*
X49091905Y-52523628D01*
X49091905Y-52523628D02*
X49139524Y-52571247D01*
X49139524Y-52571247D02*
X49234762Y-52618866D01*
X49234762Y-52618866D02*
X49425238Y-52618866D01*
X49425238Y-52618866D02*
X49520476Y-52571247D01*
X49520476Y-52571247D02*
X49568095Y-52523628D01*
X49568095Y-52523628D02*
X49615714Y-52428390D01*
X59323333Y-71934819D02*
X58990000Y-71458628D01*
X58751905Y-71934819D02*
X58751905Y-70934819D01*
X58751905Y-70934819D02*
X59132857Y-70934819D01*
X59132857Y-70934819D02*
X59228095Y-70982438D01*
X59228095Y-70982438D02*
X59275714Y-71030057D01*
X59275714Y-71030057D02*
X59323333Y-71125295D01*
X59323333Y-71125295D02*
X59323333Y-71268152D01*
X59323333Y-71268152D02*
X59275714Y-71363390D01*
X59275714Y-71363390D02*
X59228095Y-71411009D01*
X59228095Y-71411009D02*
X59132857Y-71458628D01*
X59132857Y-71458628D02*
X58751905Y-71458628D01*
X59704286Y-71030057D02*
X59751905Y-70982438D01*
X59751905Y-70982438D02*
X59847143Y-70934819D01*
X59847143Y-70934819D02*
X60085238Y-70934819D01*
X60085238Y-70934819D02*
X60180476Y-70982438D01*
X60180476Y-70982438D02*
X60228095Y-71030057D01*
X60228095Y-71030057D02*
X60275714Y-71125295D01*
X60275714Y-71125295D02*
X60275714Y-71220533D01*
X60275714Y-71220533D02*
X60228095Y-71363390D01*
X60228095Y-71363390D02*
X59656667Y-71934819D01*
X59656667Y-71934819D02*
X60275714Y-71934819D01*
X59339819Y-73416666D02*
X58863628Y-73749999D01*
X59339819Y-73988094D02*
X58339819Y-73988094D01*
X58339819Y-73988094D02*
X58339819Y-73607142D01*
X58339819Y-73607142D02*
X58387438Y-73511904D01*
X58387438Y-73511904D02*
X58435057Y-73464285D01*
X58435057Y-73464285D02*
X58530295Y-73416666D01*
X58530295Y-73416666D02*
X58673152Y-73416666D01*
X58673152Y-73416666D02*
X58768390Y-73464285D01*
X58768390Y-73464285D02*
X58816009Y-73511904D01*
X58816009Y-73511904D02*
X58863628Y-73607142D01*
X58863628Y-73607142D02*
X58863628Y-73988094D01*
X58339819Y-73083332D02*
X58339819Y-72416666D01*
X58339819Y-72416666D02*
X59339819Y-72845237D01*
X54097819Y-80263904D02*
X54907342Y-80263904D01*
X54907342Y-80263904D02*
X55002580Y-80216285D01*
X55002580Y-80216285D02*
X55050200Y-80168666D01*
X55050200Y-80168666D02*
X55097819Y-80073428D01*
X55097819Y-80073428D02*
X55097819Y-79882952D01*
X55097819Y-79882952D02*
X55050200Y-79787714D01*
X55050200Y-79787714D02*
X55002580Y-79740095D01*
X55002580Y-79740095D02*
X54907342Y-79692476D01*
X54907342Y-79692476D02*
X54097819Y-79692476D01*
X54193057Y-79263904D02*
X54145438Y-79216285D01*
X54145438Y-79216285D02*
X54097819Y-79121047D01*
X54097819Y-79121047D02*
X54097819Y-78882952D01*
X54097819Y-78882952D02*
X54145438Y-78787714D01*
X54145438Y-78787714D02*
X54193057Y-78740095D01*
X54193057Y-78740095D02*
X54288295Y-78692476D01*
X54288295Y-78692476D02*
X54383533Y-78692476D01*
X54383533Y-78692476D02*
X54526390Y-78740095D01*
X54526390Y-78740095D02*
X55097819Y-79311523D01*
X55097819Y-79311523D02*
X55097819Y-78692476D01*
X63854580Y-67821428D02*
X63902200Y-67869047D01*
X63902200Y-67869047D02*
X63949819Y-68011904D01*
X63949819Y-68011904D02*
X63949819Y-68107142D01*
X63949819Y-68107142D02*
X63902200Y-68249999D01*
X63902200Y-68249999D02*
X63806961Y-68345237D01*
X63806961Y-68345237D02*
X63711723Y-68392856D01*
X63711723Y-68392856D02*
X63521247Y-68440475D01*
X63521247Y-68440475D02*
X63378390Y-68440475D01*
X63378390Y-68440475D02*
X63187914Y-68392856D01*
X63187914Y-68392856D02*
X63092676Y-68345237D01*
X63092676Y-68345237D02*
X62997438Y-68249999D01*
X62997438Y-68249999D02*
X62949819Y-68107142D01*
X62949819Y-68107142D02*
X62949819Y-68011904D01*
X62949819Y-68011904D02*
X62997438Y-67869047D01*
X62997438Y-67869047D02*
X63045057Y-67821428D01*
X63045057Y-67440475D02*
X62997438Y-67392856D01*
X62997438Y-67392856D02*
X62949819Y-67297618D01*
X62949819Y-67297618D02*
X62949819Y-67059523D01*
X62949819Y-67059523D02*
X62997438Y-66964285D01*
X62997438Y-66964285D02*
X63045057Y-66916666D01*
X63045057Y-66916666D02*
X63140295Y-66869047D01*
X63140295Y-66869047D02*
X63235533Y-66869047D01*
X63235533Y-66869047D02*
X63378390Y-66916666D01*
X63378390Y-66916666D02*
X63949819Y-67488094D01*
X63949819Y-67488094D02*
X63949819Y-66869047D01*
X63664104Y-66488094D02*
X63664104Y-66011904D01*
X63949819Y-66583332D02*
X62949819Y-66249999D01*
X62949819Y-66249999D02*
X63949819Y-65916666D01*
X63949819Y-65059523D02*
X63949819Y-65630951D01*
X63949819Y-65345237D02*
X62949819Y-65345237D01*
X62949819Y-65345237D02*
X63092676Y-65440475D01*
X63092676Y-65440475D02*
X63187914Y-65535713D01*
X63187914Y-65535713D02*
X63235533Y-65630951D01*
X62548333Y-71934819D02*
X62215000Y-71458628D01*
X61976905Y-71934819D02*
X61976905Y-70934819D01*
X61976905Y-70934819D02*
X62357857Y-70934819D01*
X62357857Y-70934819D02*
X62453095Y-70982438D01*
X62453095Y-70982438D02*
X62500714Y-71030057D01*
X62500714Y-71030057D02*
X62548333Y-71125295D01*
X62548333Y-71125295D02*
X62548333Y-71268152D01*
X62548333Y-71268152D02*
X62500714Y-71363390D01*
X62500714Y-71363390D02*
X62453095Y-71411009D01*
X62453095Y-71411009D02*
X62357857Y-71458628D01*
X62357857Y-71458628D02*
X61976905Y-71458628D01*
X63500714Y-71934819D02*
X62929286Y-71934819D01*
X63215000Y-71934819D02*
X63215000Y-70934819D01*
X63215000Y-70934819D02*
X63119762Y-71077676D01*
X63119762Y-71077676D02*
X63024524Y-71172914D01*
X63024524Y-71172914D02*
X62929286Y-71220533D01*
X59743571Y-79329580D02*
X59695952Y-79377200D01*
X59695952Y-79377200D02*
X59553095Y-79424819D01*
X59553095Y-79424819D02*
X59457857Y-79424819D01*
X59457857Y-79424819D02*
X59315000Y-79377200D01*
X59315000Y-79377200D02*
X59219762Y-79281961D01*
X59219762Y-79281961D02*
X59172143Y-79186723D01*
X59172143Y-79186723D02*
X59124524Y-78996247D01*
X59124524Y-78996247D02*
X59124524Y-78853390D01*
X59124524Y-78853390D02*
X59172143Y-78662914D01*
X59172143Y-78662914D02*
X59219762Y-78567676D01*
X59219762Y-78567676D02*
X59315000Y-78472438D01*
X59315000Y-78472438D02*
X59457857Y-78424819D01*
X59457857Y-78424819D02*
X59553095Y-78424819D01*
X59553095Y-78424819D02*
X59695952Y-78472438D01*
X59695952Y-78472438D02*
X59743571Y-78520057D01*
X60695952Y-79424819D02*
X60124524Y-79424819D01*
X60410238Y-79424819D02*
X60410238Y-78424819D01*
X60410238Y-78424819D02*
X60315000Y-78567676D01*
X60315000Y-78567676D02*
X60219762Y-78662914D01*
X60219762Y-78662914D02*
X60124524Y-78710533D01*
X61076905Y-79139104D02*
X61553095Y-79139104D01*
X60981667Y-79424819D02*
X61315000Y-78424819D01*
X61315000Y-78424819D02*
X61648333Y-79424819D01*
X62505476Y-79424819D02*
X61934048Y-79424819D01*
X62219762Y-79424819D02*
X62219762Y-78424819D01*
X62219762Y-78424819D02*
X62124524Y-78567676D01*
X62124524Y-78567676D02*
X62029286Y-78662914D01*
X62029286Y-78662914D02*
X61934048Y-78710533D01*
X60698333Y-81079580D02*
X60650714Y-81127200D01*
X60650714Y-81127200D02*
X60507857Y-81174819D01*
X60507857Y-81174819D02*
X60412619Y-81174819D01*
X60412619Y-81174819D02*
X60269762Y-81127200D01*
X60269762Y-81127200D02*
X60174524Y-81031961D01*
X60174524Y-81031961D02*
X60126905Y-80936723D01*
X60126905Y-80936723D02*
X60079286Y-80746247D01*
X60079286Y-80746247D02*
X60079286Y-80603390D01*
X60079286Y-80603390D02*
X60126905Y-80412914D01*
X60126905Y-80412914D02*
X60174524Y-80317676D01*
X60174524Y-80317676D02*
X60269762Y-80222438D01*
X60269762Y-80222438D02*
X60412619Y-80174819D01*
X60412619Y-80174819D02*
X60507857Y-80174819D01*
X60507857Y-80174819D02*
X60650714Y-80222438D01*
X60650714Y-80222438D02*
X60698333Y-80270057D01*
X61650714Y-81174819D02*
X61079286Y-81174819D01*
X61365000Y-81174819D02*
X61365000Y-80174819D01*
X61365000Y-80174819D02*
X61269762Y-80317676D01*
X61269762Y-80317676D02*
X61174524Y-80412914D01*
X61174524Y-80412914D02*
X61079286Y-80460533D01*
D11*
%TO.C,C4*%
X64225000Y-77140580D02*
X64225000Y-76859420D01*
X63205000Y-77140580D02*
X63205000Y-76859420D01*
%TO.C,C3*%
X48527580Y-47496000D02*
X48246420Y-47496000D01*
X48527580Y-48516000D02*
X48246420Y-48516000D01*
D12*
%TO.C,SW2*%
X45776000Y-62894000D02*
X44576000Y-62894000D01*
X43770000Y-63544000D02*
X43770000Y-69044000D01*
X46670000Y-64794000D02*
X46670000Y-66294000D01*
X43790000Y-66444000D02*
X42190000Y-66444000D01*
X42190000Y-66444000D02*
X42190000Y-67719000D01*
X42190000Y-67719000D02*
X43790000Y-67719000D01*
X46670000Y-69063000D02*
X46670000Y-69053000D01*
X45776000Y-69694000D02*
X44576000Y-69694000D01*
D11*
%TO.C,U1*%
X51013000Y-39231000D02*
X51013000Y-45251000D01*
X51013000Y-39231000D02*
X69253000Y-39231000D01*
X51013000Y-45251000D02*
X49133000Y-45251000D01*
X51013000Y-59151000D02*
X51013000Y-59471000D01*
X51013000Y-59471000D02*
X52033000Y-59471000D01*
X68133000Y-59471000D02*
X69253000Y-59471000D01*
X69253000Y-39231000D02*
X69253000Y-45751000D01*
X69253000Y-59151000D02*
X69253000Y-59451000D01*
%TO.C,R5*%
X57892500Y-79587258D02*
X57892500Y-79112742D01*
X58937500Y-79587258D02*
X58937500Y-79112742D01*
%TO.C,C2*%
X64725000Y-66990580D02*
X64725000Y-66709420D01*
X63705000Y-66990580D02*
X63705000Y-66709420D01*
D12*
%TO.C,L1*%
X72515000Y-75550000D02*
X72515000Y-67750000D01*
X65115000Y-75550000D02*
X65115000Y-67750000D01*
D11*
%TO.C,J1*%
X53675000Y-88649000D02*
X53675000Y-87119000D01*
X53965000Y-84024000D02*
X65285000Y-84024000D01*
X53965000Y-92934000D02*
X53965000Y-84024000D01*
X65285000Y-84024000D02*
X65285000Y-92934000D01*
%TO.C,U3*%
X59755000Y-76650000D02*
X59755000Y-78450000D01*
X59755000Y-76650000D02*
X59755000Y-75850000D01*
X62875000Y-76650000D02*
X62875000Y-77450000D01*
X62875000Y-76650000D02*
X62875000Y-75850000D01*
%TO.C,R9*%
X48592742Y-54497500D02*
X49067258Y-54497500D01*
X48592742Y-53452500D02*
X49067258Y-53452500D01*
%TO.C,R2*%
X59727258Y-70572500D02*
X59252742Y-70572500D01*
X59727258Y-69527500D02*
X59252742Y-69527500D01*
%TO.C,R7*%
X60837500Y-73487258D02*
X60837500Y-73012742D01*
X59792500Y-73487258D02*
X59792500Y-73012742D01*
%TO.C,U2*%
X48683000Y-79502000D02*
X48683000Y-81452000D01*
X48683000Y-79502000D02*
X48683000Y-77552000D01*
X53803000Y-79502000D02*
X53803000Y-81452000D01*
X53803000Y-79502000D02*
X53803000Y-76052000D01*
%TO.C,C2A1*%
X62550000Y-66488748D02*
X62550000Y-67011252D01*
X61080000Y-66488748D02*
X61080000Y-67011252D01*
%TO.C,R1*%
X62952258Y-70572500D02*
X62477742Y-70572500D01*
X62952258Y-69527500D02*
X62477742Y-69527500D01*
%TO.C,C1A1*%
X60674420Y-80910000D02*
X60955580Y-80910000D01*
X60674420Y-79890000D02*
X60955580Y-79890000D01*
%TO.C,C1*%
X60603748Y-81665000D02*
X61126252Y-81665000D01*
X60603748Y-83135000D02*
X61126252Y-83135000D01*
%TD*%
%LPC*%
D13*
%TO.C,C4*%
X63715000Y-77775000D03*
X63715000Y-76225000D03*
%TD*%
D14*
%TO.C,C3*%
X49162000Y-48006000D03*
X47612000Y-48006000D03*
%TD*%
D15*
%TO.C,SW2*%
X45170000Y-64794000D03*
X45170000Y-67794000D03*
D16*
X47420000Y-64044000D03*
X47420000Y-67044000D03*
X47420000Y-68544000D03*
D17*
X46320000Y-62694000D03*
X44020000Y-62694000D03*
X46320000Y-69894000D03*
X44020000Y-69894000D03*
%TD*%
D18*
%TO.C,U1*%
X51383000Y-46451000D03*
X51383000Y-47951000D03*
X51383000Y-49451000D03*
X51383000Y-50951000D03*
X51383000Y-52451000D03*
X51383000Y-53951000D03*
X51383000Y-55451000D03*
X51383000Y-56951000D03*
X51383000Y-58451000D03*
X68883000Y-58451000D03*
X68883000Y-56951000D03*
X68883000Y-55451000D03*
X68883000Y-53951000D03*
X68883000Y-52451000D03*
X68883000Y-50951000D03*
X68883000Y-49451000D03*
X68883000Y-47951000D03*
X68883000Y-46451000D03*
D19*
X61233000Y-53061000D03*
%TD*%
D20*
%TO.C,R5*%
X58415000Y-80175000D03*
X58415000Y-78525000D03*
%TD*%
D13*
%TO.C,C2*%
X64215000Y-67625000D03*
X64215000Y-66075000D03*
%TD*%
D21*
%TO.C,L1*%
X68815000Y-68950000D03*
X68815000Y-74350000D03*
%TD*%
D22*
%TO.C,J1*%
X55875000Y-94234000D03*
X63375000Y-94234000D03*
D23*
X57785000Y-87884000D03*
D24*
X59055000Y-85344000D03*
X60325000Y-87884000D03*
X61595000Y-85344000D03*
%TD*%
D25*
%TO.C,U3*%
X60365000Y-77787500D03*
X61315000Y-77787500D03*
X62265000Y-77787500D03*
X62265000Y-75512500D03*
X61315000Y-75512500D03*
X60365000Y-75512500D03*
%TD*%
D26*
%TO.C,R9*%
X49655000Y-53975000D03*
X48005000Y-53975000D03*
%TD*%
D27*
%TO.C,R2*%
X60315000Y-70050000D03*
X58665000Y-70050000D03*
%TD*%
D20*
%TO.C,R7*%
X60315000Y-72425000D03*
X60315000Y-74075000D03*
%TD*%
D28*
%TO.C,U2*%
X53148000Y-81977000D03*
X51878000Y-81977000D03*
X50608000Y-81977000D03*
X49338000Y-81977000D03*
X49338000Y-77027000D03*
X50608000Y-77027000D03*
X51878000Y-77027000D03*
X53148000Y-77027000D03*
%TD*%
D29*
%TO.C,C2A1*%
X61815000Y-65800000D03*
X61815000Y-67700000D03*
%TD*%
D27*
%TO.C,R1*%
X63540000Y-70050000D03*
X61890000Y-70050000D03*
%TD*%
D30*
%TO.C,C1A1*%
X61590000Y-80400000D03*
X60040000Y-80400000D03*
%TD*%
D31*
%TO.C,C1*%
X61815000Y-82400000D03*
X59915000Y-82400000D03*
%TD*%
%LPD*%
M02*
